<?xml version="1.0" encoding="utf-8"?>
<!-- Generator: Adobe Illustrator 19.1.0, SVG Export Plug-In . SVG Version: 6.00 Build 0)  -->
<svg version="1.1" id="Layer_1" xmlns="http://www.w3.org/2000/svg" xmlns:xlink="http://www.w3.org/1999/xlink" x="0px" y="0px"
	 viewBox="-415 217 128 128" style="enable-background:new -415 217 128 128;" xml:space="preserve">
<style type="text/css">
	.st0{opacity:0.6;fill:#D1D1D1;enable-background:new    ;}
	.st1{fill:#FFFFFF;stroke:#C6C6C6;stroke-miterlimit:10;}
	.st2{fill:#590618;}
	.st3{fill:#84383E;}
	.st4{fill:#B75441;}
</style>
<path class="st0" d="M-294.3,345.1h-109.1c-4,0-7.3-3.2-7.3-7.3V228.6c0-4,3.2-7.3,7.3-7.3h109.2c4,0,7.3,3.2,7.3,7.3v109.2
	C-287,341.8-290.2,345.1-294.3,345.1z"/>
<path class="st1" d="M-297.4,340.7h-110.7c-3.4,0-6.1-2.7-6.1-6.1V223.9c0-3.4,2.7-6.1,6.1-6.1h110.7c3.4,0,6.1,2.7,6.1,6.1v110.7
	C-291.3,338-294,340.7-297.4,340.7z"/>
<g>
	<rect x="-384" y="226" class="st2" width="87" height="25"/>
	<rect x="-408" y="226" class="st2" width="20" height="25"/>
	<rect x="-408" y="269" class="st3" width="20" height="19"/>
	<rect x="-384" y="269" class="st3" width="87" height="19"/>
	<rect x="-384" y="308" class="st4" width="87" height="25"/>
	<rect x="-408" y="308" class="st4" width="20" height="25"/>
</g>
</svg>
