<?xml version="1.0" encoding="utf-8"?>
<!-- Generator: Adobe Illustrator 19.1.0, SVG Export Plug-In . SVG Version: 6.00 Build 0)  -->
<svg version="1.1" id="Layer_1" xmlns="http://www.w3.org/2000/svg" xmlns:xlink="http://www.w3.org/1999/xlink" x="0px" y="0px"
	 viewBox="0 0 369 92" style="enable-background:new 0 0 369 92;" xml:space="preserve">
<style type="text/css">
	.st0{fill:#591D28;}
	.st1{fill:#590618;}
	.st2{fill:#84383E;}
	.st3{fill:#B75441;}
</style>
<g>
	<path class="st0" d="M99.1,53.2v2.3c0,2.6,3.3,4.2,6.9,4.2c4.1,0,7-2,7-5.7c0-4.1-3.8-5.6-7.9-7.1c-4.1-1.6-8.4-3.2-8.4-8.8
		c0-5.5,4.4-8.2,9.6-8.2c4.5,0,9.1,1.8,9.1,4.9v3.4h-3v-2.3c0-2-3.3-3.1-6.1-3.1c-3.6,0-6.4,1.8-6.4,5.1c0,3.8,3.4,5,7.2,6.5
		c4.6,1.7,9.1,3.5,9.1,9.3c0,5.6-4.4,8.9-10.3,8.9c-4.5,0-9.9-2-9.9-6.3v-3H99.1z"/>
	<path class="st0" d="M134.2,48.2h1.5v-0.9c0-4.2-2.3-5.7-5.4-5.7c-3.8,0-6.6,2.2-6.6,2.2l-1.4-2.3c0,0,3.1-2.6,8.2-2.6
		c5.5,0,8.3,2.9,8.3,8.5v11.1c0,0.7,0.4,1,1,1h2.5V62h-3.7c-1.9,0-2.7-0.9-2.7-2.5v-0.4c0-1.1,0.1-1.8,0.1-1.8h-0.1
		c0,0-1.9,5.2-7.7,5.2c-3.7,0-7.5-2.1-7.5-6.7C120.5,48.5,130.3,48.2,134.2,48.2z M128.5,60c4.5,0,7.1-4.5,7.1-8.5v-1.1h-1.3
		c-1.8,0-10.6-0.2-10.6,5C123.7,57.8,125.4,60,128.5,60z"/>
	<path class="st0" d="M145.4,59.5h3.8V42.9c0-0.7-0.4-1-1-1h-3.1v-2.5h4.3c1.9,0,2.7,0.8,2.7,2.5v1.3c0,0.9-0.2,1.6-0.2,1.6h0.1
		c0.6-1.7,3.5-6,9.2-6c5.6,0,7.5,3.2,7.5,8.8v11.9h3.8V62h-6.9V48.5c0-3.5-0.6-6.7-4.9-6.7c-5,0-8.6,4.4-8.6,9.4v8.4h3.8V62h-10.7
		V59.5z"/>
	<path class="st0" d="M186,38.9c5.4,0,7.4,4.4,7.4,4.4h0.1c0,0-0.1-0.8-0.1-1.8V33h-4v-2.5h7.1v28.1c0,0.7,0.4,1,1,1h2.5V62h-3.7
		c-1.9,0-2.7-0.9-2.7-2.5v-0.4c0-0.9,0.2-1.4,0.2-1.4h-0.1c0,0-1.9,4.8-7.9,4.8c-6.1,0-9.8-4.8-9.8-11.8
		C175.8,43.6,180,38.9,186,38.9z M186.1,59.8c3.8,0,7.3-2.7,7.3-9.1c0-4.6-2.3-9.1-7.1-9.1c-4,0-7.3,3.3-7.3,9.1
		C178.9,56.3,181.8,59.8,186.1,59.8z"/>
	<path class="st0" d="M203.8,59.4h4.1V33.1h-4.1v-2.6h21.2v6.7h-2.8v-4h-11.1v11.9h11.5v2.7h-11.5v11.6h4.4V62h-11.7V59.4z"/>
	<path class="st0" d="M239.9,38.9c6.6,0,11.9,5,11.9,11.7c0,6.8-5.3,11.9-11.9,11.9c-6.6,0-11.9-5.1-11.9-11.9
		C228,43.9,233.4,38.9,239.9,38.9z M239.9,59.8c4.8,0,8.8-4,8.8-9.2c0-5.1-4-9-8.8-9c-4.8,0-8.8,3.9-8.8,9
		C231.2,55.9,235.1,59.8,239.9,59.8z"/>
	<path class="st0" d="M256,59.5h3.5V42.9c0-0.7-0.4-1-1-1h-3.1v-2.5h4.3c1.9,0,2.7,0.8,2.7,2.6v1.5c0,0.9-0.1,1.7-0.1,1.7h0.1
		c1.1-3.4,3.6-6,7.1-6c0.6,0,1.3,0.1,1.3,0.1v3c0,0-0.6-0.1-1.2-0.1c-5.1,0-7.1,5.7-7.1,10.2v7.1h3.5V62H256V59.5z"/>
	<path class="st0" d="M273.7,59.5h3.8V42.9c0-0.7-0.4-1-1-1h-3.1v-2.5h4.3c1.9,0,2.7,0.8,2.7,2.5v1.3c0,0.9-0.2,1.6-0.2,1.6h0.1
		c1.2-3.1,4.8-6,8.4-6c4.1,0,6.2,1.9,6.9,5.7h0.1c1.3-3,4.5-5.7,8.4-5.7c5.4,0,7.5,3.2,7.5,8.8v11.9h3.8V62h-6.9V48.4
		c0-3.7-0.8-6.7-4.8-6.7c-4.6,0-7.6,4.9-7.6,9.5v8.3h3.8V62H293V48.4c0-3.4-0.4-6.7-4.8-6.7c-4.6,0-7.7,4.9-7.7,9.6v8.2h3.8V62
		h-10.7V59.5z"/>
	<path class="st0" d="M318.4,55h2.8v1.6c0,2.3,3.3,3.3,5.9,3.3c2.9,0,5.3-1.3,5.3-3.5c0-2.6-2.9-3.5-6.1-4.7c-3.4-1.3-7-2.8-7-6.7
		c0-4.1,4-6,7.8-6c3.1,0,7.5,1.3,7.5,4.4v2.6h-2.8v-1.7c0-1.7-2.2-2.7-4.6-2.7c-2.5,0-4.8,1.1-4.8,3.3c0,2.5,2.7,3.5,5.7,4.6
		c3.5,1.3,7.4,2.7,7.4,6.8c0,3.9-3.5,6.4-8.5,6.4c-4.2,0-8.5-1.9-8.5-5.3V55z"/>
</g>
<g>
	<rect x="37" y="22" class="st1" width="37" height="10"/>
	<rect x="27" y="22" class="st1" width="8" height="10"/>
	<rect x="27" y="39" class="st2" width="8" height="11"/>
	<rect x="37" y="39" class="st2" width="37" height="11"/>
	<rect x="37" y="59" class="st3" width="37" height="10"/>
	<rect x="27" y="59" class="st3" width="8" height="10"/>
</g>
</svg>
